<?xml version="1.0" encoding="iso-8859-1"?>
<!-- Generator: Adobe Illustrator 19.0.0, SVG Export Plug-In . SVG Version: 6.00 Build 0)  -->
<svg xmlns="http://www.w3.org/2000/svg" xmlns:xlink="http://www.w3.org/1999/xlink" version="1.1" id="Capa_1" x="0px" y="0px" viewBox="0 0 120 120" style="enable-background:new 0 0 60 60;" xml:space="preserve" width="512px" height="512px">
<g>
	<circle cx="60" cy="60" r="60" fill="#8fd0a9"/>
	<g transform="translate(30,25)">
		<path d="M59,20H35V1c0-0.6-0.4-1-1-1h-8c-0.6,0-1,0.4-1,1v19H1c-0.6,0-1,0.4-1,1v8v28c0,1.7,1.3,3,3,3h54c1.7,0,3-1.3,3-3V29v-8    C60,20.4,59.6,20,59,20z M27,2h6v18h-6V2z M2,22h24h8h24v6H2V22z M58,57c0,0.6-0.4,1-1,1H3c-0.6,0-1-0.4-1-1V30h56V57z" fill="#ffffff"/>
		<path d="M28,55h4c0.6,0,1-0.4,1-1V34c0-0.6-0.4-1-1-1h-4c-0.6,0-1,0.4-1,1v20C27,54.6,27.4,55,28,55z M29,35h2v18h-2V35z" fill="#ffffff"/>
		<path d="M12,55h4c0.6,0,1-0.4,1-1V34c0-0.6-0.4-1-1-1h-4c-0.6,0-1,0.4-1,1v20C11,54.6,11.4,55,12,55z M13,35h2v18h-2V35z" fill="#ffffff"/>
		<path d="M44,55h4c0.6,0,1-0.4,1-1V34c0-0.6-0.4-1-1-1h-4c-0.6,0-1,0.4-1,1v20C43,54.6,43.4,55,44,55z M45,35h2v18h-2V35z" fill="#ffffff"/>
		<rect x="29" y="5" width="2" height="3" fill="#ffffff"/>
	</g>
</g>
<g>
</g>
<g>
</g>
<g>
</g>
<g>
</g>
<g>
</g>
<g>
</g>
<g>
</g>
<g>
</g>
<g>
</g>
<g>
</g>
<g>
</g>
<g>
</g>
<g>
</g>
<g>
</g>
<g>
</g>
</svg>
